# xmcd CD database file
#
# Track frame offsets:
#	150
#	38867
#	77915
#	124575
#	153470
#	185748
#
# Disc length: 3119 seconds
#
# Revision: 0
# Processed by: cddbd v1.5.1PL0 Copyright (c) Steve Scherf et al.
# Submitted via: CDex 1.51
#
DISCID=490c2d06
DTITLE=Markos Resende Quarteto - CD2 - XI Chivas Jazz Lounge 'Trib a R. Rodgers'
DYEAR=2005
DGENRE=Jazz
TTITLE0=bewitched, Bothered and Bewildered
TTITLE1=I Didn't Know What Time it Was
TTITLE2=Lover
TTITLE3=Blue Moon
TTITLE4=Misty
TTITLE5=O Amor Em Paz
EXTD=YEAR: 2005
EXTT0=
EXTT1=
EXTT2=
EXTT3=
EXTT4=
EXTT5=
PLAYORDER=
